<?xml version="1.0" encoding="UTF-8"?>
<svg id="Warstwa_1" xmlns="http://www.w3.org/2000/svg" version="1.1" viewBox="0 0 24 24">
  <!-- Generator: Adobe Illustrator 30.3.0, SVG Export Plug-In . SVG Version: 2.1.3 Build 182)  -->
  <defs>
    <style>
      .st0 {
        fill: none;
        stroke: #161616;
        stroke-miterlimit: 10;
      }

      .st1 {
        fill: #161616;
      }
    </style>
  </defs>
  <polyline class="st0" points="15.1 3.7 20.3 3.7 20.3 8.9"/>
  <path class="st1" d="M20.4,12.7c-1-2-2-4-3-6-2-1-4-2.1-6.1-3.1l-.5.9,3.9,2-9.9-.3v1s9.7.3,9.7.3L2.1,12.5l.4.9,12.5-5c-3,3-8.9,8.9-10.4,10.4l.7.7c1.5-1.5,7.5-7.4,10.4-10.4l-5,12.4.9.4,5-12.5.3,9.7h1s-.3-9.9-.3-9.9l1.9,3.8.9-.4Z"/>
</svg>