<?xml version="1.0" encoding="UTF-8"?>
<svg id="Warstwa_1" xmlns="http://www.w3.org/2000/svg" version="1.1" viewBox="0 0 24 24">
  <!-- Generator: Adobe Illustrator 30.3.0, SVG Export Plug-In . SVG Version: 2.1.3 Build 182)  -->
  <defs>
    <style>
      .st0 {
        fill: none;
        stroke: #161616;
        stroke-miterlimit: 10;
      }
    </style>
  </defs>
  <path class="st0" d="M21.3,20.3c-2.5-2.5-5-5-7.5-7.5-1.4,1.4-2.8,2.8-4.2,4.2-2.3-2.3-4.6-4.6-6.9-6.9"/>
  <path class="st0" d="M21.3,13.9c-2.5-2.5-5-5-7.5-7.5-1.4,1.4-2.8,2.8-4.2,4.2-2.3-2.3-4.6-4.6-6.9-6.9"/>
  <polyline class="st0" points="17.3 20.3 21.3 20.3 21.3 16.3"/>
  <polyline class="st0" points="17.3 13.9 21.3 13.9 21.3 9.9"/>
  <polyline class="st0" points="3.1 14.4 7.1 14.4 7.1 10.4"/>
  <polyline class="st0" points="3.1 8.1 7.1 8.1 7.1 4"/>
</svg>