<?xml version="1.0" encoding="UTF-8"?>
<svg id="Warstwa_1" xmlns="http://www.w3.org/2000/svg" version="1.1" viewBox="0 0 24 24">
  <!-- Generator: Adobe Illustrator 30.3.0, SVG Export Plug-In . SVG Version: 2.1.3 Build 182)  -->
  <defs>
    <style>
      .st0 {
        fill: none;
      }

      .st0, .st1 {
        stroke: #161616;
        stroke-miterlimit: 10;
      }

      .st1 {
        fill: #161616;
      }
    </style>
  </defs>
  <g>
    <path class="st0" d="M16.8,11.7c0,2.7-2.2,4.8-4.8,4.8s-4.8-2.2-4.8-4.8"/>
    <path class="st0" d="M21.9,12s-4.4,5.1-9.9,5.1S2.1,12,2.1,12c0,0,4.4-5.1,9.9-5.1s9.9,5.1,9.9,5.1Z"/>
    <line class="st0" x1="2.1" y1="12" x2="21.7" y2="12"/>
    <path class="st1" d="M13.2,12.3c0,.7-.5,1.2-1.2,1.2s-1.2-.5-1.2-1.2"/>
  </g>
  <line class="st0" x1="4.4" y1="14.1" x2="2.8" y2="15.7"/>
  <line class="st0" x1="19.8" y1="13.9" x2="21" y2="15.2"/>
  <line class="st0" x1="12" y1="17.1" x2="12" y2="18.9"/>
</svg>