<?xml version="1.0" encoding="UTF-8"?>
<svg id="Warstwa_1" xmlns="http://www.w3.org/2000/svg" version="1.1" viewBox="0 0 24 24">
  <!-- Generator: Adobe Illustrator 30.3.0, SVG Export Plug-In . SVG Version: 2.1.3 Build 182)  -->
  <defs>
    <style>
      .st0 {
        fill: none;
        stroke: #161616;
        stroke-miterlimit: 10;
      }
    </style>
  </defs>
  <g>
    <g>
      <path class="st0" d="M10.1,8.8c0-1.3.8-2.5,1.9-3.1-.5-.2-1-.4-1.5-.4-1.9,0-3.4,1.5-3.4,3.4s1.5,3.4,3.4,3.4,1.1-.1,1.5-.4c-1.1-.6-1.9-1.7-1.9-3.1Z"/>
      <path class="st0" d="M12.1,11.9c.5.2,1,.4,1.5.4,1.9,0,3.4-1.5,3.4-3.4s-1.5-3.4-3.4-3.4-1.1.1-1.5.4"/>
    </g>
    <rect class="st0" x="6.6" y="12.5" width="4" height="8.9"/>
    <rect class="st0" x="10.6" y="12.5" width="6.9" height="8.9"/>
  </g>
  <polyline class="st0" points="12 3 19.9 3 19.9 10.9"/>
</svg>